<svg xmlns="http://www.w3.org/2000/svg" width="48" height="48" viewBox="0 0 48 48">
  <path fill="#FFF" d="M15.8519102,12.2769375 C15.8519102,14.0915625 14.5330246,15.5625 12.3602523,15.5625 C10.3134056,15.5625 9.00003763,14.0915625 9.00003763,12.2769375 C8.9917423,10.41975 10.3554426,9 12.4498817,9 C14.5443209,9 15.8098733,10.41975 15.8519102,12.2769375 Z M9.18526033,39 L9.18526033,18 L15.6667255,18 L15.6667255,39 L9.18526033,39 Z M19.5385676,24.755625 C19.5385676,22.149375 19.4530122,19.9813125 19.3704198,18.0883125 L24.9059614,18.0883125 L25.1981829,20.995125 L25.3248493,20.995125 C26.1515139,19.6275 28.2179901,17.625 31.6622407,17.625 C35.856119,17.625 39,20.489625 39,26.6428125 L39,39 L32.6211272,39 L32.6211272,27.3984375 C32.6211272,24.7078125 31.6981666,22.8684375 29.3918761,22.8684375 C27.6311398,22.8684375 26.5841054,24.1096875 26.1211436,25.3059375 C25.9580073,25.830473 25.8871773,26.379954 25.9118848,26.9293125 L25.9118848,38.983125 L19.5385676,38.983125 L19.5385676,24.755625 L19.5385676,24.755625 Z"/>
</svg>
