<svg xmlns="http://www.w3.org/2000/svg" width="48" height="48"><path fill="#FFF" fill-rule="evenodd" d="M37.91 26.832a.729.729 0 0 1-.091-.492c.324-2.32.06-4.573-.803-6.752-2.285-5.803-8.18-9.223-14.438-8.384a.652.652 0 0 1-.356-.077c-2.765-1.5-5.543-1.527-8.257.064-3.843 2.247-5.092 7.19-2.862 11.05.06.105.083.251.079.375-.046.629-.11 1.262-.165 1.891.036 1.122.17 2.23.443 3.315 1.68 6.623 8.098 10.941 14.871 10.002.18-.024.33 0 .493.095 1.62.921 3.363 1.258 5.21.993 5.671-.815 8.742-7.124 5.876-12.08zm-7.34 3.645c-.825.89-1.856 1.434-3.01 1.779-1.003.297-2.039.391-3.089.4-1.359-.018-2.695-.165-3.953-.719-1.402-.616-2.432-1.604-3.025-3.011-.177-.423-.278-.873-.232-1.33.068-.64.438-1.075 1.044-1.287.63-.22 1.25-.175 1.737.324.247.248.42.576.598.88.182.32.325.658.507.976.493.859 1.254 1.35 2.235 1.502.989.161 1.97.121 2.924-.23a3.034 3.034 0 0 0 1.144-.736c.816-.837.72-2.091-.209-2.797-.438-.328-.93-.53-1.456-.656-1.108-.278-2.23-.516-3.334-.818-.665-.175-1.327-.4-1.966-.665a6.73 6.73 0 0 1-1.304-.751c-2.126-1.533-2.03-4.648-.251-6.217.78-.688 1.693-1.115 2.696-1.344 2.007-.458 4.01-.495 5.989.149.907.292 1.71.768 2.371 1.465.539.572.9 1.227.95 2.023.05.634-.23 1.133-.753 1.478-.53.351-1.113.351-1.683.108a1.153 1.153 0 0 1-.402-.323c-.196-.252-.406-.504-.547-.792-.72-1.47-1.93-2.044-3.54-1.936-.57.04-1.14.085-1.65.346-.311.157-.617.355-.863.597-.575.58-.525 1.417.092 1.96.419.373.92.598 1.454.738 1.027.269 2.07.48 3.092.768.926.256 1.838.585 2.752.88.095.033.191.092.287.136 3.338 1.524 3.005 5.349 1.395 7.103z"/></svg>