<svg xmlns="http://www.w3.org/2000/svg" width="48" height="48"><path fill="#FFF" fill-rule="evenodd" d="M31.937 20.292a1.4 1.4 0 0 1 1.36 1.437v8.633c.105 4.658-3.548 8.52-8.17 8.638-3.233-.08-5.984-2.003-7.313-4.742h5.24a3.373 3.373 0 0 0 3.365-3.374V20.292zm6.651-.168c.781 0 1.417.645 1.412 1.437v7.624c0 2.907-2.327 5.265-5.195 5.265h-.022c-.076 0-.148-.011-.223-.014.504-1.261.77-2.638.736-4.074v-8.59a3.366 3.366 0 0 0-.403-1.648zm-15.535-4.382c.756 0 1.366.614 1.366 1.374v13.769c0 .76-.61 1.374-1.366 1.374H9.366A1.368 1.368 0 0 1 8 30.885V17.12a1.369 1.369 0 0 1 1.366-1.38h13.687zm-3.158 3.707h-7.204V20.9h2.723v7.482h1.742V20.9h2.74v-1.45zm15.916-7.415a3.36 3.36 0 0 1 3.351 3.37c0 1.862-1.5 3.372-3.35 3.372-1.852 0-3.352-1.51-3.352-3.371a3.36 3.36 0 0 1 3.351-3.371zM25.427 9c2.68 0 4.855 2.188 4.855 4.885a4.88 4.88 0 0 1-3.863 4.785v-1.554a3.373 3.373 0 0 0-3.366-3.374H20.58C20.66 11.11 22.792 9 25.427 9z"/></svg>