<svg xmlns="http://www.w3.org/2000/svg" width="48" height="48"><path fill="#FFF" d="M31.938 20.292a1.4 1.4 0 0 1 1.358 1.437v8.633c.106 4.658-3.547 8.52-8.168 8.638-3.63-.09-6.666-2.498-7.746-5.781h5.646a2.316 2.316 0 0 0 2.306-2.324V20.292zm6.65-.168A1.42 1.42 0 0 1 40 21.56v7.624c0 2.907-2.327 5.265-5.195 5.265h-.022c-.458 0-.899-.056-1.317-.17.536-1.227.82-2.59.787-4.015v-8.681a2.368 2.368 0 0 0-.463-1.46zm-15.535-4.382c.756 0 1.366.613 1.366 1.374v13.768c0 .76-.61 1.374-1.366 1.374H9.366A1.368 1.368 0 0 1 8 30.884V17.121a1.37 1.37 0 0 1 1.366-1.38h13.687zm-3.158 3.707h-7.204v1.45h2.723v7.483h1.742V20.9h2.74v-1.45zm15.916-7.415c1.851 0 3.351 1.509 3.351 3.37 0 1.862-1.5 3.371-3.35 3.371-1.851 0-3.351-1.509-3.351-3.37 0-1.862 1.5-3.371 3.35-3.371zM25.427 9c2.68 0 4.856 2.189 4.856 4.885 0 2.702-2.176 4.89-4.862 4.89l-.168-.005v-1.625a2.33 2.33 0 0 0-2.321-2.335H20.65a4.962 4.962 0 0 1-.085-.92c0-2.701 2.176-4.89 4.862-4.89z"/></svg>