<svg xmlns="http://www.w3.org/2000/svg" width="48" height="48" viewBox="0 0 48 48">
  <path fill="#FFF" d="M34.6299919,13.3596277 C31.8345826,10.5596683 28.0293492,8.98973694 24.0632785,9.0000505 C15.8264993,9.0000505 9.1289235,15.6684088 9.12534229,23.8649739 C9.12202856,26.4735876 9.80981308,29.0369683 11.1193591,31.2966972 L9,39 L16.9187679,36.9328604 C19.1086927,38.1197497 21.562507,38.741718 24.0561161,38.7419639 L24.0625623,38.7419639 C32.295044,38.7419639 38.9969173,32.0729438 38.9999274,23.8763788 C39.0123164,19.9308059 37.4388867,16.1441031 34.6299919,13.3596277 Z M24.0632785,36.2314586 L24.0561161,36.2314586 C21.8325886,36.2317517 19.6499001,35.6369329 17.7367159,34.5093174 L17.2833349,34.241302 L12.5840733,35.4680425 L13.8389287,30.9060791 L13.5431209,30.4384779 C12.3015832,28.4698386 11.6443627,26.1920883 11.6472199,23.8678251 C11.6472199,17.0555308 17.2195894,11.5127454 24.0682922,11.5127454 C30.9254467,11.5167371 36.481405,17.0514678 36.4786127,23.875666 C36.4757467,30.6886731 30.9062514,36.2314586 24.0632785,36.2314586 L24.0632785,36.2314586 Z M30.8733043,26.977801 C30.5001424,26.7917585 28.6651313,25.8929091 28.3227677,25.7660295 C27.9804042,25.6391499 27.7318684,25.5806998 27.4833325,25.9520721 C27.2347966,26.3234444 26.5192712,27.1638436 26.3015337,27.4083363 C26.0837963,27.652829 25.8660588,27.6877566 25.4928969,27.501714 C25.119735,27.3156714 23.9171652,26.9236277 22.4911281,25.6576829 C21.3816697,24.6732967 20.6324809,23.4565356 20.4140272,23.0844505 C20.1955735,22.7123653 20.3911075,22.514205 20.5780466,22.3267369 C20.7456471,22.1599401 20.9512085,21.8926375 21.1374313,21.6759443 C21.3236542,21.459251 21.3866834,21.3038591 21.5105932,21.0565152 C21.634503,20.8091712 21.5729063,20.5917652 21.4797948,20.4057226 C21.3866834,20.21968 20.6403596,18.3913307 20.3287945,17.6471604 C20.0258242,16.9229487 19.7185566,17.0213161 19.4893592,17.0099112 C19.2744867,16.9992191 19.0223697,16.9963678 18.7731176,16.9963678 C18.3905826,17.006671 18.0297236,17.1753838 17.7775416,17.4618307 C17.4358944,17.833203 16.4718331,18.7320523 16.4718331,20.5604017 C16.4718331,22.388751 17.8090563,24.1550862 17.9952791,24.403143 C18.181502,24.6511997 20.6274672,28.4027018 24.36983,30.0115066 C25.064753,30.3100443 25.7750643,30.5717728 26.497784,30.7955941 C27.3923698,31.0807168 28.2060203,31.0379484 28.8484891,30.9424323 C29.5647308,30.8362241 31.0573784,30.0442957 31.3682273,29.1768099 C31.6790762,28.3093241 31.6790762,27.5651538 31.5830998,27.4097619 C31.4871234,27.2543701 31.2464662,27.1638436 30.8733043,26.977801 L30.8733043,26.977801 Z"/>
</svg>
